<?xml version="1.0" encoding="utf-8"?>
<!-- Generator: Adobe Illustrator 26.0.2, SVG Export Plug-In . SVG Version: 6.00 Build 0)  -->
<svg version="1.1" id="Layer_1" xmlns="http://www.w3.org/2000/svg" xmlns:xlink="http://www.w3.org/1999/xlink" x="0px" y="0px"
	 viewBox="0 0 800 800" style="enable-background:new 0 0 800 800;" xml:space="preserve">
<style type="text/css">
	.st0{fill:#F37D80;}
	.st1{fill:#091118;}
	.st2{font-family:'ComicSansMS';}
	.st3{font-size:400px;}
</style>
<path class="st0" d="M705.5,471.1c-12.9,48.1-36.3,92.6-68.7,130.4c-35.8,39.3-79.2,64.8-150,89.5C416,715.8,367.8,720.2,310,702.7
	c-57.7-17.5-96.3-34.3-134-94.4c-37.6-60-83.3-112.7-97.4-166.3S74,332.1,110.6,271.4s98-137.6,190.7-164.1s183.5-19.3,266.4,33.1
	s105.2,100.4,125.2,143.8C717.2,343.5,721.7,409.1,705.5,471.1L705.5,471.1z"/>
<text transform="matrix(1 0 0 1 139 528)" class="st1 st2 st3">He</text>
</svg>
