<?xml version="1.0" encoding="utf-8"?>
<!-- Generator: Adobe Illustrator 26.0.2, SVG Export Plug-In . SVG Version: 6.00 Build 0)  -->
<svg version="1.1" id="Layer_1" xmlns="http://www.w3.org/2000/svg" xmlns:xlink="http://www.w3.org/1999/xlink" x="0px" y="0px"
	 viewBox="0 0 800 800" style="enable-background:new 0 0 800 800;" xml:space="preserve">
<style type="text/css">
	.st0{fill:#A19D94;}
	.st1{fill:#091118;}
	.st2{font-family:'ComicSansMS';}
	.st3{font-size:425px;}
</style>
<path class="st0" d="M233.5,134.2c43-25,91-40.1,140.6-44.1c53.1-2.6,101.9,9.9,169.5,42.2s105,63.2,133.6,116.4
	s44.1,92.3,28.5,161.4s-20.4,138.6-48.1,186.6c-27.7,48-74.1,81.2-142.9,98.5c-68.8,17.2-166.5,28.5-250.9-18
	C179.5,630.8,120.1,561.6,98.3,466s-3.9-145.4,12.5-190.3C135.2,216.5,178.3,166.9,233.5,134.2L233.5,134.2z"/>
<text transform="matrix(1 0 0 1 158 533)" class="st1 st2 st3">Fe</text>
</svg>
