<svg id="burj-khalifa" xmlns="http://www.w3.org/2000/svg" viewBox="0 0 447.01 830.39"><defs><style>.cls-1{fill:#8292b6;}.cls-2{fill:#4b5698;}.cls-3{fill:#696fbb;}.cls-4{fill:#b9ecf2;}.cls-5{fill:#a0d3f2;}.cls-6{fill:#698df2;}.cls-7{fill:#96c4f2;}.cls-8{fill:#877eca;}.cls-9{fill:#87a1d4;}.cls-10{fill:#96b5de;}.cls-11{fill:#7392de;}.cls-12{fill:#4b567a;}.cls-13{fill:#647498;}.cls-14{fill:#87c4f2;}.cls-15{fill:#696ab6;}.cls-16{fill:#fff;}.cls-17{fill:#302d3d;}</style></defs><path class="cls-1" d="M-282.59-367.5" transform="translate(-132.91 295.13)"/><rect class="cls-2" x="36.79" y="670.6" width="50.47" height="99.03"/><path class="cls-3" d="M169.7,395.46h15.41a17.31,17.31,0,0,1,17.31,17.31v61.9H169.7V395.46Z" transform="translate(-132.91 295.13)"/><polygon class="cls-4" points="253.63 83.01 253.63 769.54 126.64 769.54 126.64 359.06 181.35 359.06 181.35 83.01 253.63 83.01"/><rect class="cls-5" x="159.02" y="560.06" width="144.04" height="209.57"/><rect class="cls-5" x="221.95" y="117.64" width="31.68" height="24.41"/><polygon class="cls-5" points="253.63 544.13 253.63 165.85 221.95 165.85 221.95 393.69 159.02 393.69 159.02 544.13 253.63 544.13"/><rect class="cls-6" x="230.69" y="188.1" width="72.37" height="581.44"/><path class="cls-7" d="M436-107v343.3A12.73,12.73,0,0,1,423.24,249H376.32a12.73,12.73,0,0,1-12.72-12.73h0V-107Z" transform="translate(-132.91 295.13)"/><polygon class="cls-8" points="408.23 586.2 408.23 769.54 303.06 769.54 303.06 442.51 357.68 442.51 357.68 586.2 408.23 586.2"/><path class="cls-9" d="M515.86,326.47V430.35a16.36,16.36,0,0,1-16.36,16.36H436v-275h17.91a11.42,11.42,0,0,1,11.43,11.42V304.31a11.52,11.52,0,0,0,11.43,11.43h27.7A11.41,11.41,0,0,1,515.86,326.47Z" transform="translate(-132.91 295.13)"/><rect class="cls-10" x="87.26" y="504.23" width="56.96" height="265.31"/><rect class="cls-11" x="87.26" y="645.84" width="56.96" height="123.7"/><path class="cls-12" d="M148.66,474.67H562.43a7.87,7.87,0,0,1,7.88,7.87h0v43.29H140.61V482.54a7.89,7.89,0,0,1,7.88-7.88Z" transform="translate(-132.91 295.13)"/><path class="cls-13" d="M148.66,474.67H562.43a7.87,7.87,0,0,1,7.88,7.87h0v17.32H140.61V482.54a7.89,7.89,0,0,1,7.88-7.88Z" transform="translate(-132.91 295.13)"/><path class="cls-1" d="M255.4,474.67h200a7.87,7.87,0,0,1,7.88,7.87h0v43.29H247.52V482.54a7.87,7.87,0,0,1,7.88-7.87Z" transform="translate(-132.91 295.13)"/><path class="cls-14" d="M346.11,55.27a8.66,8.66,0,0,1-8.65,8.66h-23.2V46.61h23.2A8.66,8.66,0,0,1,346.11,55.27Z" transform="translate(-132.91 295.13)"/><path class="cls-15" d="M490.59,273.76v17.31H468a8.66,8.66,0,0,1,0-17.31Z" transform="translate(-132.91 295.13)"/><rect class="cls-16" x="181.35" y="519.98" width="25.02" height="107.16" rx="5.11"/><rect class="cls-16" x="181.35" y="474.45" width="25.02" height="25.02" rx="5.11"/><rect class="cls-16" x="332.4" y="630.35" width="17.14" height="30.99" rx="4.24"/><path class="cls-6" d="M323.09,453.89H363.6v20.78H277C308.2,457.35,311.92,453.89,323.09,453.89Z" transform="translate(-132.91 295.13)"/><path class="cls-17" d="M563.39,466.53H550.83V291.76a8.66,8.66,0,0,0-8.65-8.66h-41.9v-135a8.66,8.66,0,0,0-8.66-8.66H445.57V-106.34a8.66,8.66,0,0,0-8.65-8.66H396.23V-238.44h7.88a8.66,8.66,0,0,0,8.66-8.65,8.66,8.66,0,0,0-8.66-8.66h-7.88v-30.73a8.65,8.65,0,0,0-8.65-8.65,8.66,8.66,0,0,0-8.66,8.65v30.73h-7.79a8.66,8.66,0,0,0-8.66,8.66,8.66,8.66,0,0,0,8.66,8.65h7.79v18.36H315.3a8.66,8.66,0,0,0-8.66,8.65V56H260.59a8.66,8.66,0,0,0-8.66,8.66v136.6H221.2a8.65,8.65,0,0,0-8.65,8.65V367.5h-41.9a8.66,8.66,0,0,0-8.66,8.66v90.37H149.44a16.44,16.44,0,0,0-16.53,16.36V526.6a8.66,8.66,0,0,0,8.66,8.66H571.26a8.66,8.66,0,0,0,8.66-8.66V483.32a16.54,16.54,0,0,0-16.27-16.79ZM483,156.72V283.1H469a8.66,8.66,0,1,0,0,17.32h64.48V466.53H445.57V156.72ZM428.26,466.53H373.73V454.58h22.5a8.66,8.66,0,1,0,0-17.31h-22.5v-26h22.5a8.66,8.66,0,1,0,0-17.31h-22.5V368h22.5a8.66,8.66,0,1,0,0-17.31h-22.5v-26h22.5a8.66,8.66,0,1,0,0-17.31h-22.5v-26h22.5a8.66,8.66,0,1,0,0-17.31h-22.5v-26h22.5a8.66,8.66,0,1,0,0-17.31h-22.5v-26h22.5a8.66,8.66,0,0,0,0-17.32h-22.5V154.39h22.5a8.66,8.66,0,0,0,0-17.32h-22.5v-26h22.5a8.66,8.66,0,1,0,0-17.31h-22.5v-26h22.5a8.66,8.66,0,1,0,0-17.31h-22.5v-26h22.5a8.66,8.66,0,1,0,0-17.31h-22.5v-26h22.5a8.66,8.66,0,0,0,8.66-8.66A8.66,8.66,0,0,0,396.23-36h-22.5V-62h22.5a8.66,8.66,0,0,0,8.66-8.66,8.66,8.66,0,0,0-8.66-8.65h-22.5V-99.24h54.53Zm-159-393.25H338.5a8.66,8.66,0,0,0,0-17.32H324V-202.77h55V-115H365.07a8.66,8.66,0,0,0-8.66,8.66V466.44H287.16V209.87a8.65,8.65,0,0,0-8.65-8.65h-8.66Zm0,145.25V466.44H229.86v-45h22.68a8.66,8.66,0,1,0,0-17.31H230v-26h22.51a8.66,8.66,0,1,0,0-17.31H230v-26h22.51a8.66,8.66,0,1,0,0-17.31H230V292.89h22.51a8.66,8.66,0,0,0,0-17.32H230v-26h22.51a8.66,8.66,0,1,0,0-17.31H230V218.53ZM179.31,384.81h33.24v81.72H179.31Zm-29.09,99H239.9v33.5H150.22Zm107,33.5v-33.5h198.4v33.5Zm305.4,0H472.93v-33.5h89.68Z" transform="translate(-132.91 295.13)"/></svg>