<svg xmlns="http://www.w3.org/2000/svg" viewBox="0 0 96 96" id="burj-khalifa"><g data-name="Burj Khalifa"><rect width="5.83" height="11.44" x="26.43" y="77.54" fill="#4b5698"></rect><path fill="#696fbb" d="M26.43,79.85h1.78a2,2,0,0,1,2,2V89a0,0,0,0,1,0,0H26.43a0,0,0,0,1,0,0V79.85A0,0,0,0,1,26.43,79.85Z"></path><polygon fill="#b9ecf2" points="51.48 9.66 51.48 88.97 36.81 88.97 36.81 41.55 43.13 41.55 43.13 9.66 51.48 9.66"></polygon><rect width="16.64" height="24.21" x="40.55" y="64.77" fill="#a0d3f2"></rect><rect width="3.66" height="2.82" x="47.82" y="13.66" fill="#a0d3f2"></rect><polygon fill="#a0d3f2" points="51.48 62.93 51.48 19.23 47.82 19.23 47.82 45.55 40.55 45.55 40.55 62.93 51.48 62.93"></polygon><rect width="8.36" height="67.17" x="48.83" y="21.8" fill="#698df2"></rect><path fill="#96c4f2" d="M57.19,21.8V61.46a1.47,1.47,0,0,1-1.47,1.47H50.3a1.47,1.47,0,0,1-1.47-1.47V21.8Z"></path><polygon fill="#877eca" points="69.34 67.79 69.34 88.97 57.19 88.97 57.19 51.19 63.5 51.19 63.5 67.79 69.34 67.79"></polygon><path fill="#87a1d4" d="M66.42,71.88v12a1.89,1.89,0,0,1-1.89,1.89H57.19V54h2.07a1.32,1.32,0,0,1,1.32,1.32v14a1.33,1.33,0,0,0,1.32,1.32h3.2A1.32,1.32,0,0,1,66.42,71.88Z"></path><rect width="6.58" height="30.65" x="32.26" y="58.32" fill="#96b5de"></rect><rect width="6.58" height="14.29" x="32.26" y="74.68" fill="#7392de"></rect><path fill="#4b567a" d="M24,89H71.8a.91.91,0,0,1,.91.91v5a0,0,0,0,1,0,0H23.07a0,0,0,0,1,0,0v-5A.91.91,0,0,1,24,89Z"></path><path fill="#647498" d="M24,89H71.8a.91.91,0,0,1,.91.91v2a0,0,0,0,1,0,0H23.07a0,0,0,0,1,0,0v-2A.91.91,0,0,1,24,89Z"></path><path fill="#8292b6" d="M36.33,89H59.44a.91.91,0,0,1,.91.91v5a0,0,0,0,1,0,0H35.42a0,0,0,0,1,0,0v-5A.91.91,0,0,1,36.33,89Z"></path><path fill="#696fbb" d="M53.43 26.1a1 1 0 01-1 1h-3.6v-2h3.6A1 1 0 0153.43 26.1zM53.43 31.06a1 1 0 01-1 1h-3.6v-2h3.6A1 1 0 0153.43 31.06zM53.43 36a1 1 0 01-1 1h-3.6V35h3.6A1 1 0 0153.43 36zM53.43 41a1 1 0 01-1 1h-3.6V40h3.6A1 1 0 0153.43 41zM53.43 45.93a1 1 0 01-1 1h-3.6v-2h3.6A1 1 0 0153.43 45.93zM53.43 50.89a1 1 0 01-1 1h-3.6v-2h3.6A1 1 0 0153.43 50.89zM53.43 55.85a1 1 0 01-1 1h-3.6v-2h3.6A1 1 0 0153.43 55.85zM53.43 60.81a1 1 0 01-1 1h-3.6v-2h3.6A1 1 0 0153.43 60.81zM53.43 65.77a1 1 0 01-1 1h-3.6v-2h3.6A1 1 0 0153.43 65.77zM53.43 70.73a1 1 0 01-1 1h-3.6v-2h3.6A1 1 0 0153.43 70.73zM53.43 75.68a1 1 0 01-1 1h-3.6v-2h3.6A1 1 0 0153.43 75.68zM53.43 80.64a1 1 0 01-1 1h-3.6v-2h3.6A1 1 0 0153.43 80.64zM53.43 85.6a1 1 0 01-1 1h-3.6v-2h3.6A1 1 0 0153.43 85.6zM36.86 61.93a1 1 0 01-1 1h-3.6v-2h3.6A1 1 0 0136.86 61.93zM36.86 66.89a1 1 0 01-1 1h-3.6v-2h3.6A1 1 0 0136.86 66.89zM36.86 71.85a1 1 0 01-1 1h-3.6v-2h3.6A1 1 0 0136.86 71.85zM36.86 76.81a1 1 0 01-1 1h-3.6v-2h3.6A1 1 0 0136.86 76.81zM36.86 81.77a1 1 0 01-1 1h-3.6v-2h3.6A1 1 0 0136.86 81.77z"></path><path fill="#87c4f2" d="M46.81,40.55a1,1,0,0,1-1,1H43.13v-2h2.68A1,1,0,0,1,46.81,40.55Z"></path><path fill="#696ab6" d="M63.5,65.79v2H60.89a1,1,0,0,1,0-2Z"></path><rect width="2.89" height="12.38" x="43.13" y="60.14" fill="#fff" rx=".59"></rect><rect width="2.89" height="2.89" x="43.13" y="54.88" fill="#fff" rx=".59"></rect><rect width="1.98" height="3.58" x="60.58" y="72.89" fill="#fff" rx=".49"></rect><path fill="#698df2" d="M44.15,86.6h4.68V89h-10C42.43,87,42.86,86.6,44.15,86.6Z"></path><path fill="#302d3d" d="M71.91,88.06H70.46V67.87a1,1,0,0,0-1-1H64.62V51.27a1,1,0,0,0-1-1H58.3V21.88a1,1,0,0,0-1-1H52.6V6.62h.91a1,1,0,0,0,0-2H52.6V1.07a1,1,0,0,0-2,0V4.62h-.9a1,1,0,0,0,0,2h.9V8.74H43.25a1,1,0,0,0-1,1V40.63H36.93a1,1,0,0,0-1,1V57.41H32.38a1,1,0,0,0-1,1V76.62H26.54a1,1,0,0,0-1,1V88.06H24.09A1.9,1.9,0,0,0,22.18,90v5a1,1,0,0,0,1,1H72.82a1,1,0,0,0,1-1V90A1.91,1.91,0,0,0,71.91,88.06ZM62.62,52.27v14.6H61a1,1,0,1,0,0,2h7.45V88.06H58.3V52.27ZM56.3,88.06H50V86.68h2.6a1,1,0,1,0,0-2H50v-3h2.6a1,1,0,0,0,0-2H50v-3h2.6a1,1,0,0,0,0-2H50v-3h2.6a1,1,0,0,0,0-2H50v-3h2.6a1,1,0,0,0,0-2H50v-3h2.6a1,1,0,0,0,0-2H50v-3h2.6a1,1,0,0,0,0-2H50V52h2.6a1,1,0,0,0,0-2H50V47h2.6a1,1,0,0,0,0-2H50v-3h2.6a1,1,0,0,0,0-2H50v-3h2.6a1,1,0,0,0,0-2H50v-3h2.6a1,1,0,0,0,0-2H50v-3h2.6a1,1,0,0,0,0-2H50v-2.3H56.3ZM37.93,42.63h8a1,1,0,0,0,0-2H44.25V10.74H50.6V20.88H49a1,1,0,0,0-1,1V88.05H40V58.41a1,1,0,0,0-1-1h-1Zm0,16.78V88.05H33.38V82.85H36a1,1,0,0,0,0-2h-2.6v-3H36a1,1,0,1,0,0-2h-2.6v-3H36a1,1,0,0,0,0-2h-2.6V68H36a1,1,0,1,0,0-2h-2.6V63H36a1,1,0,0,0,0-2h-2.6V59.41ZM27.54,78.62h3.84v9.44H27.54ZM24.18,90.06H34.54v3.87H24.18Zm12.36,3.87V90.06H59.46v3.87Zm35.28,0H61.46V90.06H71.82Z"></path></g></svg>